<?xml version="1.0" encoding="UTF-8" standalone="no"?>
<svg
   xmlns:dc="http://purl.org/dc/elements/1.1/"
   xmlns:cc="http://creativecommons.org/ns#"
   xmlns:rdf="http://www.w3.org/1999/02/22-rdf-syntax-ns#"
   xmlns:svg="http://www.w3.org/2000/svg"
   xmlns="http://www.w3.org/2000/svg"
   version="1.1"
   id="svg4292"
   viewBox="0 0 62.578689 159.55333"
   height="45.029495mm"
   width="17.661097mm">
  <defs
     id="defs4294" />
  <metadata
     id="metadata4297">
    <rdf:RDF>
      <cc:Work
         rdf:about="">
        <dc:format>image/svg+xml</dc:format>
        <dc:type
           rdf:resource="http://purl.org/dc/dcmitype/StillImage" />
        <dc:title></dc:title>
      </cc:Work>
    </rdf:RDF>
  </metadata>
  <g
     transform="translate(230.57506,-452.58554)"
     id="layer1">
    <g
       transform="translate(-450.3086,76.495139)"
       id="g5008">
      <rect
         ry="12.922956"
         y="379.04727"
         x="222.69041"
         height="153.63959"
         width="56.664948"
         id="rect5010"
         style="opacity:1;fill:none;fill-opacity:1;stroke:#000000;stroke-width:5.91374445;stroke-linecap:round;stroke-linejoin:bevel;stroke-miterlimit:4;stroke-dasharray:none;stroke-opacity:1" />
      <path
         d="m 230.53666,406.67482 a 20.487207,20.487207 0 0 1 20.66724,-20.28653 20.487207,20.487207 0 0 1 20.30555,20.64856 20.487207,20.487207 0 0 1 -20.62986,20.32455 20.487207,20.487207 0 0 1 -20.34353,-20.61114"
         id="path5012"
         style="opacity:1;fill:#ff0000;fill-opacity:1;stroke:#ff0000;stroke-width:0;stroke-linecap:round;stroke-linejoin:bevel;stroke-miterlimit:4;stroke-dasharray:none;stroke-opacity:1" />
      <path
         style="opacity:1;fill:#ff6600;fill-opacity:1;stroke:#ff0000;stroke-width:0;stroke-linecap:round;stroke-linejoin:bevel;stroke-miterlimit:4;stroke-dasharray:none;stroke-opacity:1"
         id="path5014"
         d="m 230.53666,454.15199 a 20.487207,20.487207 0 0 1 20.66724,-20.28653 20.487207,20.487207 0 0 1 20.30555,20.64856 20.487207,20.487207 0 0 1 -20.62986,20.32455 20.487207,20.487207 0 0 1 -20.34353,-20.61114" />
      <path
         d="m 230.53666,501.62916 a 20.487207,20.487207 0 0 1 20.66724,-20.28653 20.487207,20.487207 0 0 1 20.30555,20.64857 20.487207,20.487207 0 0 1 -20.62986,20.32455 20.487207,20.487207 0 0 1 -20.34353,-20.61114"
         id="path5016"
         style="opacity:1;fill:#008000;fill-opacity:1;stroke:#ff0000;stroke-width:0;stroke-linecap:round;stroke-linejoin:bevel;stroke-miterlimit:4;stroke-dasharray:none;stroke-opacity:1" />
    </g>
  </g>
</svg>
